<svg id="icons" xmlns="http://www.w3.org/2000/svg" viewBox="0 0 260 260"><defs><style>.cls-1{fill:#237aba;}</style></defs><title>1</title><path class="cls-1" d="M196,174.95c0-15.15-7.86-25-20.59-25s-20.8,9.86-20.8,25.11,7.76,25.11,20.8,25.11C188.2,200.16,196,190.1,196,174.95Zm-20.59,14.73c-5.07,0-7.14-5.5-7.14-14.73,0-8.92,2-14.32,7.14-14.32,4.86,0,6.93,5.29,6.93,14.42S180.34,189.68,175.37,189.68Z"/><polygon class="cls-1" points="223.17 151.19 177.44 227.96 191.72 227.96 237.45 151.19 223.17 151.19"/><path class="cls-1" d="M239.73,178.68c-12.83,0-20.8,10-20.8,25.21,0,15,7.76,25.1,20.7,25.1s20.7-10.17,20.7-25.21S252.46,178.68,239.73,178.68Zm0,39.73c-5.07,0-7.14-5.39-7.14-14.63,0-8.92,2-14.32,7-14.32s7,5.19,7,14.32S244.7,218.42,239.73,218.42Z"/><path class="cls-1" d="M144.57,175.05c0-21,12.38-35.11,30.8-35.11a32,32,0,0,1,8.81,1.2q.29-5.28.3-10.76c0-66.17-31.87-110-87.36-110-55.2,0-87.64,43.83-87.64,110s32.44,110,87.64,110c28.85,0,51.31-11.85,66.23-32.53C151.77,203.06,144.57,191.06,144.57,175.05ZM97.12,204c-26.46,0-41.54-25.21-41.54-73.62S69.8,57.63,97.12,57.63c26.46,0,41.54,24.35,41.54,72.76S124.15,204,97.12,204Z"/><path class="cls-1" d="M196,174.95c0-15.15-7.86-25-20.59-25s-20.8,9.86-20.8,25.11,7.76,25.11,20.8,25.11C188.2,200.16,196,190.1,196,174.95Zm-20.59,14.73c-5.07,0-7.14-5.5-7.14-14.73,0-8.92,2-14.32,7.14-14.32,4.86,0,6.93,5.29,6.93,14.42S180.34,189.68,175.37,189.68Z"/></svg>