<svg xmlns="http://www.w3.org/2000/svg" viewBox="0 0 260 260"><defs><style>.cls-1{fill:#237aba;fill-rule:evenodd;}</style></defs><title>1</title><g id="text"><path class="cls-1" d="M210.07,10H200L190,20H180V10H170L160,20H150V10H140L130,20H120V10H110L100,20H90V10H80L70,20H60V10H49.93A10,10,0,0,0,40,20V240a10,10,0,0,0,9.93,10H60l10-10H80v10H90l10-10h10v10h10l10-10h10v10h10l10-10h10v10h10l10-10h10v10h10.07A10,10,0,0,0,220,240V20A10,10,0,0,0,210.07,10ZM141.43,114.93l-12.86,12.86H103c-.1,1.06-.16,2.13-.16,3.21s.06,2.16.16,3.21h38.41l-12.86,12.86h-21.4a32.14,32.14,0,0,0,50.56,6.66l9.09,9.09A45,45,0,0,1,90,131c0-1.08.05-2.15.13-3.21H90l.14-.14a45,45,0,0,1,76.68-28.47l-9.09,9.09a32.14,32.14,0,0,0-50.56,6.66Z"/></g></svg>