<svg id="Capa_1" data-name="Capa 1" xmlns="http://www.w3.org/2000/svg" xmlns:xlink="http://www.w3.org/1999/xlink" viewBox="0 0 600 600"><defs><style>.cls-1{fill:url(#Degradado_sin_nombre_18);}.cls-2{fill:#2dcccd;}.cls-3{fill:url(#Degradado_sin_nombre_2);}.cls-4{fill:#028484;opacity:0.6;}.cls-4,.cls-5{isolation:isolate;}.cls-11,.cls-5{fill:#eaf9fa;}.cls-5{opacity:0.7;}.cls-6{fill:#1464a5;}.cls-7{fill:url(#Degradado_sin_nombre_21);}.cls-8{fill:#49a5e6;}.cls-9{opacity:0.5;}.cls-10{fill:url(#Degradado_sin_nombre_15);}.cls-12{fill:#eb5e62;}.cls-13{fill:#d8be75;}.cls-14{fill:url(#Degradado_sin_nombre_11);}.cls-15{fill:url(#Degradado_sin_nombre_11-2);}.cls-16{fill:url(#Degradado_sin_nombre_11-3);}.cls-17{fill:#28ad68;}</style><linearGradient id="Degradado_sin_nombre_18" x1="270.82" y1="1235.68" x2="468.84" y2="1608.1" gradientTransform="translate(0 -1100.8)" gradientUnits="userSpaceOnUse"><stop offset="0" stop-color="#072146" stop-opacity="0.5"/><stop offset="1" stop-color="#072146" stop-opacity="0"/></linearGradient><linearGradient id="Degradado_sin_nombre_2" x1="391.4" y1="1448.24" x2="162.14" y2="1448.24" gradientTransform="translate(0 -1100.8)" gradientUnits="userSpaceOnUse"><stop offset="0" stop-color="#2dcccd"/><stop offset="1" stop-color="#02a5a5" stop-opacity="0.5"/></linearGradient><linearGradient id="Degradado_sin_nombre_21" x1="425.4" y1="1395.04" x2="305.4" y2="1395.04" gradientTransform="translate(0 -1100.8)" gradientUnits="userSpaceOnUse"><stop offset="0" stop-color="#043263" stop-opacity="0.5"/><stop offset="1" stop-color="#043263" stop-opacity="0"/></linearGradient><linearGradient id="Degradado_sin_nombre_15" x1="226.93" y1="1219.13" x2="303.29" y2="1295.49" gradientTransform="translate(0 -1100.8)" gradientUnits="userSpaceOnUse"><stop offset="0" stop-color="#eaf9fa" stop-opacity="0.5"/><stop offset="1" stop-color="#eaf9fa" stop-opacity="0"/></linearGradient><linearGradient id="Degradado_sin_nombre_11" x1="-13456.42" y1="365.92" x2="-13480.31" y2="342.03" gradientTransform="translate(-13232 704.8) rotate(180)" xlink:href="#Degradado_sin_nombre_15"/><linearGradient id="Degradado_sin_nombre_11-2" x1="-13518.42" y1="365.92" x2="-13542.31" y2="342.03" gradientTransform="translate(-13232 704.8) rotate(180)" xlink:href="#Degradado_sin_nombre_15"/><linearGradient id="Degradado_sin_nombre_11-3" x1="-13579.42" y1="365.92" x2="-13603.31" y2="342.03" gradientTransform="translate(-13232 704.8) rotate(180)" xlink:href="#Degradado_sin_nombre_15"/></defs><path class="cls-1" d="M453.8,139.6H267.7a23,23,0,0,0-23,23v270a23,23,0,0,0,23,23h11v54.8a17.9,17.9,0,0,0,17.9,17.9H424.9a17.8,17.8,0,0,0,15.7-9.3h0a17.8,17.8,0,0,0,2.1-8.5h0V455.7h11.1a22.9,22.9,0,0,0,22.9-22.9h0V162.6A23.1,23.1,0,0,0,453.8,139.6Z"/><path class="cls-2" d="M391.4,234.2V460.4a17.9,17.9,0,0,1-17.9,17.9H245.3a17.9,17.9,0,0,1-17.9-17.9V234.2a17.9,17.9,0,0,1,17.9-17.9H373.5A18,18,0,0,1,391.4,234.2Z"/><path class="cls-3" d="M373.5,216.4H317.2L227.4,385.3v75.3a17.9,17.9,0,0,0,17.9,17.9H373.5a17.9,17.9,0,0,0,17.9-17.9h0V234.2A17.9,17.9,0,0,0,373.5,216.4Z"/><rect class="cls-4" x="340" y="216.4" width="27.2" height="262"/><path class="cls-5" d="M290.4,255.3V438.8a2.3,2.3,0,0,1-2.3,2.3H268.4a2.3,2.3,0,0,1-2.3-2.3V255.3a2.3,2.3,0,0,1,2.3-2.3h19.7A2.2,2.2,0,0,1,290.4,255.3Z"/><path class="cls-6" d="M402.5,405.6H216.4a23,23,0,0,1-23-23h0v-270a23,23,0,0,1,23-23H402.5a23,23,0,0,1,23,23h0v270a22.9,22.9,0,0,1-23,23Z"/><path class="cls-7" d="M305.4,405.7h97.1a22.9,22.9,0,0,0,22.9-22.9h0v-200Z"/><path class="cls-8" d="M227.4,119.2h164a2.9,2.9,0,0,1,3,3v96a2.9,2.9,0,0,1-3,3h-164a2.9,2.9,0,0,1-3-3v-96A3,3,0,0,1,227.4,119.2Z"/><g class="cls-9"><path class="cls-10" d="M227.2,119.2a2.7,2.7,0,0,0-2.7,2.7h0v96.5a2.7,2.7,0,0,0,2.7,2.7h49.7l54.4-102H227.2Z"/></g><path class="cls-11" d="M227.4,237.2h40a2.9,2.9,0,0,1,3,3v31a2.9,2.9,0,0,1-3,3h-40a2.9,2.9,0,0,1-3-3v-31A3,3,0,0,1,227.4,237.2Z"/><path class="cls-11" d="M289.4,237.2h40a2.9,2.9,0,0,1,3,3v31a2.9,2.9,0,0,1-3,3h-40a2.9,2.9,0,0,1-3-3v-31A3,3,0,0,1,289.4,237.2Z"/><path class="cls-11" d="M350.4,237.2h40a2.9,2.9,0,0,1,3,3v31a2.9,2.9,0,0,1-3,3h-40a2.9,2.9,0,0,1-3-3v-31A3,3,0,0,1,350.4,237.2Z"/><path class="cls-11" d="M227.4,287.2h40a2.9,2.9,0,0,1,3,3v31a2.9,2.9,0,0,1-3,3h-40a2.9,2.9,0,0,1-3-3v-31A3,3,0,0,1,227.4,287.2Z"/><path class="cls-11" d="M289.4,287.2h40a2.9,2.9,0,0,1,3,3v31a2.9,2.9,0,0,1-3,3h-40a2.9,2.9,0,0,1-3-3v-31A3,3,0,0,1,289.4,287.2Z"/><path class="cls-11" d="M350.4,287.2h40a2.9,2.9,0,0,1,3,3v31a2.9,2.9,0,0,1-3,3h-40a2.9,2.9,0,0,1-3-3v-31A3,3,0,0,1,350.4,287.2Z"/><path class="cls-2" d="M350.4,337.2h40a2.9,2.9,0,0,1,3,3v31a2.9,2.9,0,0,1-3,3h-40a2.9,2.9,0,0,1-3-3v-31A3,3,0,0,1,350.4,337.2Z"/><path class="cls-12" d="M227.4,337.2h40a2.9,2.9,0,0,1,3,3v31a2.9,2.9,0,0,1-3,3h-40a2.9,2.9,0,0,1-3-3v-31A3,3,0,0,1,227.4,337.2Z"/><path class="cls-13" d="M289.4,337.2h40a2.9,2.9,0,0,1,3,3v31a2.9,2.9,0,0,1-3,3h-40a2.9,2.9,0,0,1-3-3v-31A3,3,0,0,1,289.4,337.2Z"/><path class="cls-14" d="M227.4,374.2h9.5l19.5-37h-29a2.9,2.9,0,0,0-3,3v31a3,3,0,0,0,3,3Z"/><path class="cls-15" d="M289.4,374.2h9.5l19.5-37h-29a2.9,2.9,0,0,0-3,3v31a3,3,0,0,0,3,3Z"/><path class="cls-16" d="M350.4,374.2h9.5l19.5-37h-29a2.9,2.9,0,0,0-3,3v31a3,3,0,0,0,3,3Z"/><path class="cls-17" d="M346.1,170.2a36.7,36.7,0,1,1-36.7-36.6,36.7,36.7,0,0,1,36.7,36.6h0"/><path class="cls-11" d="M301.9,187.4a3.6,3.6,0,0,1-2.8-1.2l-11.3-11.3a3.9,3.9,0,0,1,.3-5.6,4,4,0,0,1,5.4,0l8.5,8.5,23.6-23.6a4,4,0,1,1,5.7,5.7l-26.4,26.4A5.3,5.3,0,0,1,301.9,187.4Z"/></svg>