<svg xmlns="http://www.w3.org/2000/svg" xmlns:xlink="http://www.w3.org/1999/xlink" viewBox="0 0 600 600"><defs><style>.cls-1{fill:none;}.cls-2{fill:url(#Degradado_sin_nombre_93);}.cls-3{fill:#043263;}.cls-4{fill:#49a5e6;}.cls-5{opacity:0.5;isolation:isolate;fill:url(#Degradado_sin_nombre_24);}.cls-6{fill:#5ac4c4;}.cls-7{fill:#bbe6e7;}.cls-8{fill:#028484;}.cls-9{fill:#f6cb5c;}.cls-10{fill:#fdf4dc;}.cls-11{fill:url(#Degradado_sin_nombre_10);}</style><linearGradient id="Degradado_sin_nombre_93" x1="220.02" y1="118.16" x2="433.21" y2="519.11" gradientUnits="userSpaceOnUse"><stop offset="0" stop-color="#192647" stop-opacity="0.5"/><stop offset="1" stop-color="#192647" stop-opacity="0"/></linearGradient><linearGradient id="Degradado_sin_nombre_24" x1="166.46" y1="-1926.26" x2="320.72" y2="-2080.52" gradientTransform="matrix(1, 0, 0, -1, 0, -1736)" gradientUnits="userSpaceOnUse"><stop offset="0" stop-color="#fff" stop-opacity="0.5"/><stop offset="1" stop-color="#ecf7f8" stop-opacity="0.1"/></linearGradient><linearGradient id="Degradado_sin_nombre_10" x1="207.22" y1="-1509.5" x2="251.7" y2="-1533.16" gradientTransform="matrix(1, 0, 0, -1, 0, -1258)" gradientUnits="userSpaceOnUse"><stop offset="0" stop-color="#fff" stop-opacity="0.6"/><stop offset="1" stop-color="#fff" stop-opacity="0.2"/></linearGradient></defs><title>18</title><g id="Cuadrados_Blancos" data-name="Cuadrados Blancos"><rect class="cls-1" width="600" height="600"/></g><g id="Capa_14" data-name="Capa 14"><path class="cls-2" d="M584.76,375.1a3,3,0,0,0,0-4.24L579,365.1a3,3,0,0,1,0-4.24l5.76-5.76a3,3,0,0,0,0-4.24l-7-7a3,3,0,0,0-2.12-.88H500.49V295a16,16,0,0,0-16-16H419.1V176.35H419V147.51a22.13,22.13,0,0,0-22.1-22.16H212a22.13,22.13,0,0,0-22.06,22.2v362a22.12,22.12,0,0,0,22.1,22.1H396.9a22.12,22.12,0,0,0,22.1-22.1v-28.9h.1V379h21.26v48h0a16,16,0,0,0,16,16H575.64a3,3,0,0,0,2.12-.88l7-7a3,3,0,0,0,0-4.24L579,425.1a3,3,0,0,1,0-4.24l5.76-5.76a3,3,0,0,0,0-4.24L579,405.1a3,3,0,0,1,0-4.24l5.76-5.76a3,3,0,0,0,0-4.24L579,385.1a3,3,0,0,1,0-4.24Z"/><path class="cls-3" d="M158,71.35H342.9A22.13,22.13,0,0,1,365,93.51v362a22.12,22.12,0,0,1-22.1,22.1H158a22.12,22.12,0,0,1-22.1-22.1v-362A22.13,22.13,0,0,1,158,71.35Z"/><rect class="cls-4" x="135.9" y="122.35" width="229.2" height="304.3"/><polygon class="cls-5" points="136.2 122.55 136.2 426.45 253 426.65 365 219.65 365 122.35 136.2 122.55"/><path class="cls-6" d="M530.76,316.86,525,311.1a3,3,0,0,1,0-4.24l5.76-5.76a3,3,0,0,0,0-4.24l-7-7a3,3,0,0,0-2.12-.88H386.36v84a16,16,0,0,0,16,16H521.64a3,3,0,0,0,2.12-.88l7-7a3,3,0,0,0,0-4.24L525,371.1a3,3,0,0,1,0-4.24l5.76-5.76a3,3,0,0,0,0-4.24L525,351.1a3,3,0,0,1,0-4.24l5.76-5.76a3,3,0,0,0,0-4.24L525,331.1a3,3,0,0,1,0-4.24l5.76-5.76A3,3,0,0,0,530.76,316.86Z"/><path class="cls-7" d="M446.49,341h0a16,16,0,0,0-16-16H250V225H430.49a16,16,0,0,1,16,16Z"/><path class="cls-8" d="M386.36,373h0a16,16,0,0,1,16-16h28V325h-44Z"/><circle class="cls-8" cx="430.49" cy="340.98" r="16"/><path class="cls-8" d="M501,372.14a3,3,0,0,1-3-3V310.43a3,3,0,0,1,6,0v58.71a3,3,0,0,1-3,3Z"/><path class="cls-8" d="M483.92,371.82a3,3,0,0,1-3-3v-58.7a3,3,0,0,1,6,0v58.7A3,3,0,0,1,483.92,371.82Z"/><path class="cls-8" d="M466.85,352.14a3,3,0,0,1-3-3v-39a3,3,0,0,1,6,0v39A3,3,0,0,1,466.85,352.14Z"/><path class="cls-6" d="M406.36,308a3,3,0,0,1-3-3V245a3,3,0,0,1,6,0v60A3,3,0,0,1,406.36,308Z"/><path class="cls-6" d="M386.36,288a3,3,0,0,1-3-3V245a3,3,0,0,1,6,0v40A3,3,0,0,1,386.36,288Z"/><path class="cls-6" d="M346.36,288a3,3,0,0,1-3-3V245a3,3,0,0,1,6,0v40A3,3,0,0,1,346.36,288Z"/><path class="cls-6" d="M366.36,288a3,3,0,0,1-3-3V245a3,3,0,0,1,6,0v40A3,3,0,0,1,366.36,288Z"/><path class="cls-6" d="M326.36,288a3,3,0,0,1-3-3V245a3,3,0,0,1,6,0v40A3,3,0,0,1,326.36,288Z"/><path class="cls-9" d="M301.36,275a50,50,0,1,1-50-50h0a50,50,0,0,1,50,50"/><path class="cls-10" d="M252.17,299.06c-9.39,0-15.69-5.76-17.76-16.23h-7.53v-5.59h6.87c-.06-.78-.06-1.57-.06-2.34v-1.56h-6.81v-5.52h7.45c1.94-10.55,8.57-16.84,17.76-16.84,7.81,0,13.17,3.46,15.94,10.3l.06.16-6.85,3.87-.07-.22c-1.61-4.84-4.41-7-9.08-7-5.18,0-8.59,3.36-9.87,9.72h11.52v5.52H241.65v1.41c0,.84,0,1.7.06,2.49h12.1v5.59H242.38c1.34,6.23,4.57,9.26,9.86,9.26,4.83,0,7.61-2.2,9.31-7.37l.07-.23,6.7,4-.06.16A16.83,16.83,0,0,1,252.17,299.06Z"/><path class="cls-11" d="M251.33,225a50,50,0,0,0-23.08,94.29l46.66-88.39A49.85,49.85,0,0,0,251.33,225Z"/></g></svg>