<?xml version="1.0" encoding="UTF-8"?>
<svg width="80px" height="80px" viewBox="0 0 80 80" version="1.1" xmlns="http://www.w3.org/2000/svg" xmlns:xlink="http://www.w3.org/1999/xlink">
    <title>A7314EB8-CF1A-4114-8A64-27C9EE949C90</title>
    <defs>
        <linearGradient x1="112.336481%" y1="-60.0803857%" x2="-103.401456%" y2="321.087592%" id="linearGradient-1">
            <stop stop-color="#192647" stop-opacity="0.48" offset="0%"></stop>
            <stop stop-color="#192647" stop-opacity="0" offset="100%"></stop>
        </linearGradient>
        <linearGradient x1="133.035482%" y1="-257.825828%" x2="-69.2199073%" y2="492.422807%" id="linearGradient-2">
            <stop stop-color="#192647" offset="0%"></stop>
            <stop stop-color="#192647" stop-opacity="0.5" offset="0%"></stop>
            <stop stop-color="#192647" stop-opacity="0" offset="100%"></stop>
        </linearGradient>
        <linearGradient x1="67.2636633%" y1="-434.736001%" x2="33.1381674%" y2="526.06737%" id="linearGradient-3">
            <stop stop-color="#192647" offset="0%"></stop>
            <stop stop-color="#192647" stop-opacity="0.5" offset="0%"></stop>
            <stop stop-color="#192647" stop-opacity="0" offset="100%"></stop>
        </linearGradient>
        <linearGradient x1="-375.375715%" y1="-595.976215%" x2="353.025401%" y2="510.16239%" id="linearGradient-4">
            <stop stop-color="#192647" offset="0%"></stop>
            <stop stop-color="#192647" stop-opacity="0.5" offset="0%"></stop>
            <stop stop-color="#192647" stop-opacity="0" offset="100%"></stop>
        </linearGradient>
        <linearGradient x1="-311.467657%" y1="-770.254974%" x2="247.899088%" y2="498.71236%" id="linearGradient-5">
            <stop stop-color="#192647" offset="0%"></stop>
            <stop stop-color="#192647" stop-opacity="0.5" offset="0%"></stop>
            <stop stop-color="#192647" stop-opacity="0" offset="100%"></stop>
        </linearGradient>
        <linearGradient x1="20.3009415%" y1="-41.6752892%" x2="77.385584%" y2="126.774248%" id="linearGradient-6">
            <stop stop-color="#192647" stop-opacity="0.5" offset="0%"></stop>
            <stop stop-color="#192647" stop-opacity="0" offset="100%"></stop>
        </linearGradient>
        <linearGradient x1="-4.58101486%" y1="-115.802638%" x2="72.6202411%" y2="118.75517%" id="linearGradient-7">
            <stop stop-color="#192647" stop-opacity="0.49" offset="0%"></stop>
            <stop stop-color="#192647" stop-opacity="0" offset="100%"></stop>
        </linearGradient>
        <linearGradient x1="59.0529918%" y1="35.0000081%" x2="37.9189814%" y2="57.0849726%" id="linearGradient-8">
            <stop stop-color="#028484" stop-opacity="0.4" offset="0%"></stop>
            <stop stop-color="#028484" stop-opacity="0.1" offset="100%"></stop>
        </linearGradient>
        <linearGradient x1="59.6245068%" y1="27.6064531%" x2="34.7467116%" y2="79.3782846%" id="linearGradient-9">
            <stop stop-color="#028484" stop-opacity="0.4" offset="0%"></stop>
            <stop stop-color="#028484" stop-opacity="0.1" offset="100%"></stop>
        </linearGradient>
    </defs>
    <g id="HdC-UFE-" stroke="none" stroke-width="1" fill="none" fill-rule="evenodd">
        <g id="01-UFE_Home-HdC_widget" transform="translate(-304.000000, -1265.000000)">
            <g id="Environmental-impact" transform="translate(272.000000, 1193.000000)">
                <g id="Component-/-Cards-/-widget-Home-UFE-/HdC-main-widget" transform="translate(0.000000, 48.000000)">
                    <g id="Carbon-Footprint" transform="translate(32.000000, 24.000000)">
                        <g id="Group" transform="translate(14.133333, 2.666667)" fill-rule="nonzero">
                            <ellipse id="Oval" fill="url(#linearGradient-1)" transform="translate(43.732112, 13.717702) rotate(-49.540000) translate(-43.732112, -13.717702) " cx="43.7321121" cy="13.7177018" rx="6.87601093" ry="4.79530055"></ellipse>
                            <ellipse id="Oval" fill="url(#linearGradient-2)" transform="translate(50.119264, 22.300651) rotate(-39.540000) translate(-50.119264, -22.300651) " cx="50.1192644" cy="22.3006513" rx="4.08218579" ry="3.09174863"></ellipse>
                            <ellipse id="Oval" fill="url(#linearGradient-3)" transform="translate(53.130939, 29.678397) rotate(-29.540000) translate(-53.130939, -29.678397) " cx="53.1309387" cy="29.6783966" rx="3.29775956" ry="2.49590164"></ellipse>
                            <path d="M52.6338501,34.7576824 C51.1695879,35.2774638 50.3011726,36.5975185 50.694178,37.7068081 C51.0871835,38.8160977 52.5958174,39.2915076 54.058495,38.7733108 C55.5211726,38.2551141 56.3911726,36.9318901 55.9981671,35.8241852 C55.6051616,34.7164802 54.0981124,34.237901 52.6338501,34.7576824 Z" id="Path" fill="url(#linearGradient-4)"></path>
                            <ellipse id="Oval" fill="url(#linearGradient-5)" transform="translate(51.786489, 42.972901) rotate(-9.540000) translate(-51.786489, -42.972901) " cx="51.786489" cy="42.9729006" rx="2.44836066" ry="1.85409836"></ellipse>
                            <path d="M43.992484,28.8879556 C43.1628223,27.5912912 42.1623399,26.4122463 41.0180032,25.3826005 C40.7818829,25.168666 40.5425933,24.9642398 40.2953802,24.7693218 C38.7027573,23.5015622 36.9801889,22.6157152 35.3685496,22.2718354 C35.224342,21.6823272 35.0516097,21.0991578 34.8931398,20.5112343 C34.8519376,20.3765349 34.807566,20.2418354 34.7631944,20.107136 L34.7631944,20.107136 C34.570664,19.5286454 33.9529035,19.2082449 33.3691296,19.3841062 C32.7853556,19.5599676 32.4473708,20.1682856 32.6064185,20.7568627 C32.666637,20.9074092 32.7252709,21.0595403 32.7807354,21.2116715 C32.8821562,21.5175185 32.988331,21.8217808 33.0976753,22.1276278 C27.5131944,22.5222179 20.7687135,27.9070267 20.0761999,35.2235841 C18.9669103,46.9123272 28.9980578,58.7341852 30.6540687,60.5993764 C30.6755457,60.6220177 30.6994617,60.6422134 30.7253802,60.659595 L30.7253802,60.659595 C30.7725648,60.6921719 30.8269386,60.712834 30.8838501,60.7198136 L30.8838501,60.7198136 L30.9250523,60.7198136 L30.9472381,60.7198136 L30.9821015,60.7198136 L31.0137955,60.7198136 L31.0407354,60.7118901 C31.0538971,60.7085432 31.0666512,60.7037604 31.0787682,60.6976278 L31.100954,60.6881196 C31.1206802,60.6785955 31.1392832,60.6669022 31.1564185,60.6532562 C31.280025,60.5581742 31.4432491,60.4313983 31.6397518,60.274513 C31.8362545,60.1176278 32.0692053,59.9274638 32.3306807,59.71036 L32.5303529,59.5423819 C32.7379485,59.3680649 32.9598064,59.1794857 33.194342,58.9734748 C33.5112818,58.6987935 33.8477664,58.3982289 34.2037955,58.0717808 C35.6893528,56.7104351 37.0977035,55.2671667 38.4222654,53.7487207 L38.7392053,53.3763163 C39.1639048,52.8755513 39.5901889,52.3557699 40.0069649,51.816972 C40.1126115,51.6828008 40.2182582,51.5465167 40.3239048,51.4081196 C41.735557,49.5726277 42.9652669,47.6041366 43.9956534,45.5304693 C44.1541234,45.2056059 44.3125933,44.8759884 44.4536316,44.5432015 C44.5946698,44.2104147 44.7404622,43.8760431 44.8735769,43.5385021 C44.9401343,43.3689392 45.005107,43.1993764 45.068495,43.0282289 C45.5783041,41.661589 45.9499228,40.2473146 46.1777846,38.8065895 C46.2337773,38.445278 46.2786771,38.0818536 46.312484,37.7163163 C46.5945605,34.7497589 45.7721015,31.9004693 44.3537955,29.4758791 C44.2301889,29.2730376 44.1097518,29.0770631 43.992484,28.8879556 Z" id="Path" fill="url(#linearGradient-6)"></path>
                            <path d="M23.7764731,62.5200321 C23.7685496,62.3948409 23.7606261,62.2696496 23.7511179,62.1444584 C23.7299886,61.8919629 23.7046334,61.6415804 23.6750523,61.3933108 C23.6433583,61.144513 23.608495,60.8957152 23.5672928,60.6469174 C23.5260906,60.3981196 23.481719,60.1524912 23.4325933,59.9084474 C23.3586407,59.5386842 23.2746516,59.1736751 23.1806261,58.8134201 C22.9657425,57.9802191 22.7092275,57.1583135 22.4120469,56.3507972 C22.3280578,56.1241852 22.242484,55.9007425 22.1553256,55.6788846 C21.7607354,54.6821086 21.324943,53.7407972 20.887566,52.877136 C20.692648,52.4936387 20.4961452,52.1244037 20.3028119,51.7678464 C20.2061452,51.5919447 20.1094786,51.4207972 20.0143966,51.2544037 C19.9193146,51.0880103 19.8242327,50.9247862 19.7307354,50.767901 C19.6372381,50.6110158 19.5453256,50.4509611 19.4549977,50.3115076 C19.3646698,50.172054 19.2775114,50.0215076 19.1903529,49.8836387 C19.0619922,49.6792125 18.936801,49.4858791 18.8179485,49.3052234 C18.3425387,48.5826005 17.9685496,48.0659884 17.7736316,47.8060977 C17.7621152,47.7903593 17.7488214,47.7760021 17.7340141,47.7633108 L17.7340141,47.7633108 C17.6479643,47.6941952 17.5273686,47.6878145 17.4345059,47.7474638 C15.9845059,48.6808518 7.10068075,54.6821086 5.65860425,62.6705786 C4.72204687,67.862054 8.81057146,72.9394311 12.3650523,73.9647316 L12.9688228,74.0772453 L13.0512272,74.4163709 C13.0829212,74.5336387 13.1193693,74.6493218 13.152648,74.7665895 L13.3586589,75.4670267 L13.6011179,76.1579556 L13.8308993,76.7347862 C13.9336951,77.0076914 14.1780905,77.2020721 14.4671291,77.2408137 C14.7561676,77.2795552 15.043125,77.1563949 15.2141594,76.9201928 C15.3851938,76.6839907 15.4126569,76.37293 15.2856534,76.1104147 L15.0463638,75.5922179 L14.7880578,74.9583382 L14.5614458,74.3244584 L14.5012272,74.1533108 C18.2585496,73.8617261 22.7416644,70.6368627 23.592648,65.9128737 C23.7047983,65.2914279 23.7731088,64.6628649 23.7970742,64.0318354 C23.8065824,63.7798682 23.8113365,63.527901 23.8081671,63.2759338 C23.8049977,63.0239666 23.7907354,62.7719994 23.7764731,62.5200321 Z" id="Path" fill="url(#linearGradient-7)"></path>
                            <ellipse id="Oval" fill="#2DCCCD" transform="translate(38.216500, 8.440109) rotate(-49.540000) translate(-38.216500, -8.440109) " cx="38.2165003" cy="8.44010929" rx="6.87601093" ry="4.79530055"></ellipse>
                            <ellipse id="Oval" fill="#2DCCCD" transform="translate(44.603857, 17.023653) rotate(-39.540000) translate(-44.603857, -17.023653) " cx="44.6038565" cy="17.0236535" rx="4.08218579" ry="3.09174863"></ellipse>
                            <ellipse id="Oval" fill="#2DCCCD" transform="translate(47.615703, 24.401509) rotate(-29.540000) translate(-47.615703, -24.401509) " cx="47.6157025" cy="24.4015093" rx="3.29775956" ry="2.49590164"></ellipse>
                            <ellipse id="Oval" fill="#2DCCCD" transform="translate(47.829665, 31.491760) rotate(-19.540000) translate(-47.829665, -31.491760) " cx="47.8296651" cy="31.4917601" rx="2.81442623" ry="2.12983607"></ellipse>
                            <ellipse id="Oval" fill="#2DCCCD" transform="translate(46.270269, 37.692674) rotate(-9.540000) translate(-46.270269, -37.692674) " cx="46.2702686" cy="37.6926736" rx="2.44836066" ry="1.85409836"></ellipse>
                            <path d="M25.126637,55.3223272 C25.2560006,55.4681813 25.4762134,55.4889561 25.6305715,55.3698682 C27.6082764,53.8485567 39.6789321,44.1185021 40.786637,32.4329283 C41.5060906,24.8374638 34.9961452,18.0121633 29.75079,16.9726005 L28.2928665,16.8264835 C22.5879485,16.7776824 15.2713911,22.3098682 14.5487682,29.9465349 C13.4410633,41.6336933 23.4706261,53.457136 25.126637,55.3223272 Z" id="Path" fill="#2DCCCD"></path>
                            <path d="M40.786637,32.4329283 C41.5060906,24.8374638 34.9961452,18.0121633 29.75079,16.9726005 L28.2928665,16.8268081 L30.4163638,29.4647862 C30.6271288,29.5075731 27.3547245,43.7777917 27.5639048,43.839595 L25.2613365,55.4189939 C25.2370009,55.4090619 25.2136554,55.3968586 25.1916097,55.3825458 C25.3234474,55.4746068 25.4997052,55.4707611 25.6274021,55.3730376 C27.6082764,53.8485567 39.6789321,44.1216715 40.786637,32.4329283 Z" id="Path" fill="url(#linearGradient-8)"></path>
                            <path d="M30.9615004,25.4444037 C30.9472381,25.0640759 30.942484,24.6821633 30.9202982,24.3002507 L30.842648,23.1560977 C30.8331398,22.9659338 30.810954,22.7757699 30.7919376,22.5856059 L30.731719,22.0135294 L30.6715004,21.4430376 C30.6477299,21.2528737 30.6176206,21.0627097 30.5922654,20.8725458 C30.5352163,20.4938026 30.4860906,20.1118901 30.4227026,19.7347316 C30.2800797,18.97883 30.151719,18.2197589 29.9631398,17.4717808 C29.8046698,16.7174638 29.5796425,15.9789939 29.3736316,15.2341852 C29.3324294,15.097901 29.2880578,14.9647862 29.2436862,14.8300868 L29.2436862,14.8300868 C29.0633815,14.3148233 28.5396388,14.0029357 28.0007103,14.0898973 C27.4617818,14.176859 27.0627189,14.6376509 27.0536316,15.1834748 C27.0538008,15.2835632 27.0671206,15.3831956 27.0932491,15.4798136 C27.1534676,15.6382835 27.2121015,15.7824912 27.267566,15.9346223 C27.4973474,16.6207972 27.7429758,17.3022179 27.9347245,18.0026551 C28.1502436,18.6967535 28.3102982,19.4066988 28.4846152,20.1150595 C28.5654348,20.4700321 28.6304075,20.8281742 28.7048884,21.1863163 C28.7397518,21.3653873 28.7777846,21.5428737 28.8110633,21.7235294 L28.896637,22.2639119 L28.9837955,22.8058791 C29.0123201,22.9849502 29.0424294,23.1656059 29.0630305,23.3478464 L29.1961452,24.4381196 C29.2373474,24.8026005 29.2627026,25.168666 29.2959813,25.5331469 C29.3102436,25.716972 29.3308447,25.8992125 29.3403529,26.0830376 L29.3704622,26.6329283 C29.4195879,27.3650595 29.4275114,28.1019447 29.4417736,28.8372453 L29.4417736,29.9465349 C29.4417736,30.3157699 29.4180032,30.6834201 29.408495,31.0558245 C29.3472199,32.5348773 29.2220287,34.0075913 29.0329212,35.4739666 C28.8438137,36.9403418 28.5876206,38.3966806 28.264342,39.842983 C28.105872,40.5687753 27.9378939,41.2913983 27.7461452,42.0076824 C27.5876753,42.6209611 27.4086042,43.2389939 27.2136862,43.8380103 C27.1524219,44.0078001 27.2403991,44.1951065 27.410189,44.2563709 C27.5799788,44.3176353 27.7672852,44.229658 27.8285496,44.0598682 C28.0646698,43.4481742 28.2722654,42.8396496 28.4735223,42.2216168 C28.7080578,41.503748 28.9219922,40.781125 29.1200797,40.0521633 C29.5162545,38.5963527 29.8522108,37.1241669 30.1279485,35.6356059 C30.4036862,34.1470449 30.6149795,32.647391 30.7618283,31.1366442 C30.7935223,30.757901 30.8347245,30.3807425 30.858495,30.0019994 L30.9298064,28.8641852 C30.9567463,28.1051141 30.9884403,27.3444584 30.9805168,26.5822179 L30.9805168,26.0101414 C30.9773474,25.8263163 30.9662545,25.6361524 30.9615004,25.4444037 Z" id="Path" fill="#028484"></path>
                            <path d="M12.2557081,42.536972 C12.1749406,42.4295168 12.0249573,42.4025612 11.9118283,42.4751688 C10.4618283,43.406972 1.57800315,49.4098136 0.135926651,57.3982835 C-0.800630726,62.5881742 3.28313977,67.6639666 6.84237474,68.684513 L7.837566,68.8699229 C11.7676206,69.2344037 17.1286589,65.847901 18.0699704,60.6294857 C19.5136316,52.6457699 13.2889321,43.9172453 12.2557081,42.536972 Z" id="Path" fill="#2DCCCD"></path>
                            <path d="M10.0371288,50.0199229 C10.1359144,50.0671626 10.1799347,50.1838514 10.1369649,50.2845677 C9.97849496,50.6490485 9.8422108,51.0277917 9.70751135,51.4033655 C9.54904141,51.8407425 9.40483375,52.2844584 9.2685496,52.7297589 C8.9959813,53.6214165 8.76197401,54.5225822 8.56652774,55.4332562 C8.37108148,56.3439301 8.21261153,57.25883 8.09111791,58.1779556 C8.06576272,58.4093218 8.03406873,58.6391032 8.01188294,58.8688846 L7.94849496,59.5598136 C7.91838567,60.0225458 7.88510698,60.4821086 7.87718348,60.9448409 L7.86609059,61.2903054 C7.86609059,61.4059884 7.86609059,61.5200868 7.86609059,61.6357699 C7.86609059,61.867136 7.86609059,62.0969174 7.86609059,62.3266988 L7.89144578,63.0160431 C7.89144578,63.1317261 7.90412337,63.2458245 7.91204687,63.3599229 L7.93898676,63.7038026 L7.96434195,64.0460977 C7.97543485,64.1601961 7.98969714,64.2742944 8.00237474,64.3883928 C8.02931463,64.6165895 8.05150042,64.8432015 8.08319441,65.0698136 C8.15450589,65.5230376 8.21630916,65.974677 8.31456053,66.4199775 C8.4128119,66.865278 8.51581736,67.3089939 8.63150042,67.751125 C8.6901343,67.9698136 8.76144578,68.1869174 8.82483375,68.4040212 L8.92308512,68.7304693 C8.95794851,68.8382289 8.997566,68.9444037 9.03401408,69.0474092 L9.2622108,69.681289 L9.52051681,70.3151688 L9.75980643,70.8317808 C9.94167742,71.2257471 9.77283442,71.6927145 9.38106326,71.8792671 L9.38106326,71.8792671 C9.18317497,71.9731792 8.95523889,71.9809828 8.75139109,71.9008247 C8.5475433,71.8206666 8.38597239,71.6596989 8.30505233,71.4561524 L8.07527091,70.8809065 L7.8328119,70.1899775 L7.62680097,69.4895403 C7.59352228,69.3722726 7.55707419,69.2550048 7.5253802,69.1377371 L7.43980643,68.7843491 C7.38434195,68.5466442 7.32253867,68.3089392 7.27182829,68.0744037 C7.18150042,67.5989939 7.08007966,67.1235841 7.01986108,66.6481742 C6.9596425,66.1727644 6.90259332,65.6894311 6.86139113,65.2092671 C6.84079004,64.9683928 6.83128184,64.7338573 6.81543485,64.4866442 C6.81543485,64.3677917 6.79958785,64.2473546 6.79483375,64.1269174 L6.79483375,63.7656059 L6.79483375,63.4058791 C6.79483375,63.285442 6.79483375,63.1650048 6.79483375,63.0445677 L6.80592665,62.3251141 C6.80592665,62.0842398 6.82969714,61.8497043 6.84079004,61.6056606 C6.84079004,61.4868081 6.85188294,61.3663709 6.86139113,61.2475185 L6.89150042,60.8893764 C6.92636381,60.4139666 6.98658239,59.9385567 7.04997037,59.4631469 L7.15456053,58.7547862 C7.18942392,58.518666 7.2353802,58.2793764 7.27499769,58.049595 C7.44614523,57.1114529 7.65743849,56.1838755 7.90887747,55.2668627 C8.16031645,54.34985 8.44820352,53.4460431 8.77253867,52.555442 C8.93100862,52.1101414 9.10691026,51.6680103 9.29232009,51.2322179 C9.45079004,50.8550595 9.60925998,50.4858245 9.79308512,50.1150048 C9.81664399,50.0662865 9.85869337,50.0290019 9.90988113,50.0114433 C9.9610689,49.9938847 10.0171507,49.9975081 10.0656534,50.0215076 L10.0371288,50.0199229 Z" id="Path" fill="#028484"></path>
                            <path d="M9.90559878,50.3019994 C10.0513911,50.3558791 6.9659813,60.00036 7.11018895,60.0415622 L7.837566,68.8730923 C11.7676206,69.2375731 17.1286589,65.8510704 18.0699704,60.6326551 C19.5136316,52.6441852 13.2889321,43.9156606 12.2557081,42.5338026 C12.2326424,42.5014923 12.2014936,42.4758082 12.1653802,42.4593218 L9.90559878,50.3019994 Z" id="Path" fill="url(#linearGradient-9)"></path>
                        </g>
                        <rect id="Rectangle" x="0" y="0" width="80" height="80"></rect>
                    </g>
                </g>
            </g>
        </g>
    </g>
</svg>